HIERARCHY
ROOT joint_Root
{
	OFFSET 0.0 0.0 0.0
	CHANNELS 6 Xposition Yposition Zposition Zrotation Xrotation Yrotation 
	JOINT Hips
	{
		OFFSET 4.5925 91.4895 -427.239
		CHANNELS 6 Xposition Yposition Zposition Zrotation Xrotation Yrotation 
		JOINT Spine
		{
			OFFSET 15.7357 0.0 0.0
			CHANNELS 6 Xposition Yposition Zposition Zrotation Xrotation Yrotation 
			JOINT Chest
			{
				OFFSET 8.98455 -0.406207 0.0
				CHANNELS 6 Xposition Yposition Zposition Zrotation Xrotation Yrotation 
				JOINT Neck
				{
					OFFSET 16.3773 0.0 0.0
					CHANNELS 6 Xposition Yposition Zposition Zrotation Xrotation Yrotation 
					JOINT Head
					{
						OFFSET 6.45672 0.0 0.0
						CHANNELS 6 Xposition Yposition Zposition Zrotation Xrotation Yrotation 
						End Site
						{
							OFFSET 0.0 0.0 0.0
						}
					}
				}
				JOINT Shoulder_L
				{
					OFFSET 12.9942 -0.242716 4.98039
					CHANNELS 6 Xposition Yposition Zposition Zrotation Xrotation Yrotation 
					JOINT UpperArm_L
					{
						OFFSET 5.34809 0.0 0.0
						CHANNELS 6 Xposition Yposition Zposition Zrotation Xrotation Yrotation 
						JOINT LowerArm_L
						{
							OFFSET 24.3286 1.87007e-05 0.0
							CHANNELS 6 Xposition Yposition Zposition Zrotation Xrotation Yrotation 
							JOINT Hand_L
							{
								OFFSET 22.2916 0.0 0.0
								CHANNELS 6 Xposition Yposition Zposition Zrotation Xrotation Yrotation 
								End Site
								{
									OFFSET 0.0 0.0 0.0
								}
							}
						}
					}
				}
				JOINT Shoulder_R
				{
					OFFSET 12.9945 -0.242716 -4.98039
					CHANNELS 6 Xposition Yposition Zposition Zrotation Xrotation Yrotation 
					JOINT UpperArm_R
					{
						OFFSET -5.34813 0.0 0.0
						CHANNELS 6 Xposition Yposition Zposition Zrotation Xrotation Yrotation 
						JOINT LowerArm_R
						{
							OFFSET -24.3289 0.000322201 0.0
							CHANNELS 6 Xposition Yposition Zposition Zrotation Xrotation Yrotation 
							JOINT Hand_R
							{
								OFFSET -22.2915 -0.000108084 0.0
								CHANNELS 6 Xposition Yposition Zposition Zrotation Xrotation Yrotation 
								End Site
								{
									OFFSET 0.0 0.0 0.0
								}
							}
						}
					}
				}
			}
		}
		JOINT UpperLeg_L
		{
			OFFSET -2.19248 -6.46944 0.0
			CHANNELS 6 Xposition Yposition Zposition Zrotation Xrotation Yrotation 
			JOINT LowerLeg_L
			{
				OFFSET 39.0811 0.0 -1.23785e-05
				CHANNELS 6 Xposition Yposition Zposition Zrotation Xrotation Yrotation 
				JOINT Foot_L
				{
					OFFSET 40.9854 0.0 -1.26872e-05
					CHANNELS 6 Xposition Yposition Zposition Zrotation Xrotation Yrotation 
					JOINT Toes_L
					{
						OFFSET 11.7543 0.0 0.0
						CHANNELS 6 Xposition Yposition Zposition Zrotation Xrotation Yrotation 
						End Site
						{
							OFFSET 0.0 0.0 0.0
						}
					}
				}
			}
		}
		JOINT UpperLeg_R
		{
			OFFSET -2.19251 6.46944 0.0
			CHANNELS 6 Xposition Yposition Zposition Zrotation Xrotation Yrotation 
			JOINT LowerLeg_R
			{
				OFFSET -39.0811 -0.00228153 -0.0401928
				CHANNELS 6 Xposition Yposition Zposition Zrotation Xrotation Yrotation 
				JOINT Foot_R
				{
					OFFSET -40.9854 0.0 0.0
					CHANNELS 6 Xposition Yposition Zposition Zrotation Xrotation Yrotation 
					JOINT Toes_R
					{
						OFFSET -11.7543 0.0 0.0
						CHANNELS 6 Xposition Yposition Zposition Zrotation Xrotation Yrotation 
						End Site
						{
							OFFSET 0.0 0.0 0.0
						}
					}
				}
			}
		}
	}
}
MOTION
Frames:	6
Frame Time:	0.0333333
0.000000 0.000000 0.000000 0.000000 0.000000 -0.000000 -3.125560 91.849800 -2.374340 87.247700 0.056268 2.748940 15.735700 0.000005 -0.000001 78.411600 86.319600 -81.948100 8.984550 -0.406207 -0.000000 -0.582947 -1.220950 -7.075760 16.377300 -0.000001 -0.000001 3.534350 -4.043570 5.362600 6.456720 -0.000001 -0.000000 -4.739620 -0.700351 -1.080130 12.994200 -0.242716 4.980390 -91.417600 3.352620 -67.063300 5.348090 -0.000007 -0.000001 -59.117200 13.165600 -4.884240 24.328600 0.000019 0.000005 10.477200 19.151100 -29.409800 22.291600 -0.000001 0.000005 13.282900 5.168690 3.492500 12.994500 -0.242716 -4.980390 94.998000 -11.782300 -66.814900 -5.348130 -0.000001 -0.000004 -17.186000 -73.872200 -53.118000 -24.328900 0.000322 -0.000009 -6.265050 -7.847080 -38.797800 -22.291500 -0.000108 -0.000004 20.617500 5.578230 -10.117600 -2.192480 -6.469440 -0.000000 -172.441000 -12.502800 -7.434000 39.081100 -0.000007 -0.000012 -0.123371 0.244255 26.798100 40.985400 -0.000006 -0.000013 -0.870095 8.593480 -66.336600 11.754300 -0.000000 0.000003 -0.000043 -0.000499 -16.597000 -2.192510 6.469440 -0.000001 -178.455000 24.331000 174.863000 -39.081100 -0.002282 -0.040193 0.018800 -0.034863 23.951000 -40.985400 0.000008 0.000006 8.401730 13.901100 -67.761000 -11.754300 -0.000006 -0.000006 -0.004601 -0.057550 -18.914500
0.000000 0.000000 0.000000 0.000000 0.000000 -0.000000 -2.880700 91.864400 -2.421680 87.252000 -0.494461 2.689440 15.735700 0.000005 -0.000001 79.876300 86.327600 -83.193400 8.984550 -0.406207 -0.000000 -0.557191 -1.050070 -6.635990 16.377300 -0.000001 -0.000001 3.403650 -3.895190 5.311250 6.456720 -0.000001 -0.000000 -4.394820 -0.728046 -1.027590 12.994200 -0.242716 4.980390 -91.515500 3.591310 -67.102800 5.348090 -0.000007 -0.000001 -59.484400 14.042100 -5.060470 24.328600 0.000019 0.000005 10.032400 19.201600 -28.275500 22.291600 -0.000001 0.000005 13.389200 5.165820 3.562250 12.994500 -0.242716 -4.980390 94.653400 -11.209800 -67.280900 -5.348130 -0.000001 -0.000004 -16.296300 -72.249400 -50.003900 -24.328900 0.000322 -0.000009 -7.118710 -7.364540 -44.249700 -22.291500 -0.000108 -0.000004 20.383000 5.573570 -9.872550 -2.192480 -6.469440 -0.000000 -172.645000 -12.681300 -7.422390 39.081100 -0.000007 -0.000012 -0.121342 0.240290 26.793100 40.985400 -0.000006 -0.000013 -0.783871 8.147540 -66.385000 11.754300 -0.000000 0.000003 -0.000033 -0.000396 -16.593000 -2.192510 6.469440 -0.000001 -178.620000 24.199400 174.771000 -39.081100 -0.002282 -0.040193 0.018902 -0.035143 23.920600 -40.985400 0.000008 0.000006 8.441280 14.395100 -67.740900 -11.754300 -0.000006 -0.000006 -0.004633 -0.057873 -18.927600
0.000000 0.000000 0.000000 0.000000 0.000000 -0.000000 -2.613580 91.874700 -2.478210 87.256700 -1.070900 2.640820 15.735700 0.000005 -0.000001 80.736200 86.318300 -83.813500 8.984550 -0.406207 -0.000000 -0.517018 -0.962867 -6.155700 16.377300 -0.000001 -0.000001 3.228890 -3.554110 5.048040 6.456720 -0.000001 -0.000000 -4.004410 -0.744253 -0.701165 12.994200 -0.242716 4.980390 -91.608300 3.815410 -67.122400 5.348090 -0.000007 -0.000001 -59.953000 15.145700 -5.193530 24.328600 0.000019 0.000005 9.666200 19.422300 -27.122100 22.291600 -0.000001 0.000005 13.174300 5.159650 3.711440 12.994500 -0.242716 -4.980390 94.151700 -10.243600 -67.795600 -5.348130 -0.000001 -0.000004 -16.273500 -69.970200 -47.556900 -24.328900 0.000322 -0.000009 -7.653480 -6.298320 -50.767800 -22.291500 -0.000108 -0.000004 20.579700 5.568360 -9.604680 -2.192480 -6.469440 -0.000000 -172.847000 -12.873100 -7.407040 39.081100 -0.000007 -0.000012 -0.119633 0.236755 26.807700 40.985400 -0.000006 -0.000013 -0.675812 7.767320 -66.449500 11.754300 -0.000000 0.000003 -0.000041 -0.000479 -16.596200 -2.192510 6.469440 -0.000001 -178.811000 24.178000 174.676000 -39.081100 -0.002282 -0.040193 0.017232 -0.031419 23.891400 -40.985400 0.000008 0.000006 8.276220 14.978300 -67.649800 -11.754300 -0.000006 -0.000006 -0.004495 -0.056489 -18.871200
0.000000 0.000000 0.000000 0.000000 0.000000 -0.000000 -2.335710 91.874800 -2.518840 87.292700 -1.657780 2.677690 15.735700 0.000005 -0.000001 81.439600 86.283900 -84.276900 8.984550 -0.406207 -0.000000 -0.432527 -0.903224 -5.674760 16.377300 -0.000001 -0.000001 3.091070 -3.230850 4.791910 6.456720 -0.000001 -0.000000 -3.696970 -0.711401 -0.404575 12.994200 -0.242716 4.980390 -91.669200 3.969470 -67.171200 5.348090 -0.000007 -0.000001 -60.544100 16.443400 -5.345240 24.328600 0.000019 0.000005 9.250300 19.662700 -25.828000 22.291600 -0.000001 0.000005 13.005000 5.162630 3.639420 12.994500 -0.242716 -4.980390 93.643000 -9.267390 -68.428600 -5.348130 -0.000001 -0.000004 -16.360100 -66.885100 -44.327000 -24.328900 0.000322 -0.000009 -7.919930 -4.875990 -58.571100 -22.291500 -0.000108 -0.000004 20.777200 5.560360 -9.205020 -2.192480 -6.469440 -0.000000 -173.074000 -13.147200 -7.324170 39.081100 -0.000007 -0.000012 -0.116887 0.230754 26.864300 40.985400 -0.000006 -0.000013 -0.540685 7.413590 -66.537400 11.754300 -0.000000 0.000003 -0.000039 -0.000459 -16.595400 -2.192510 6.469440 -0.000001 -179.080000 24.061000 174.617000 -39.081100 -0.002282 -0.040193 0.011943 -0.019410 23.967300 -40.985400 0.000008 0.000006 8.117430 15.508600 -67.589900 -11.754300 -0.000006 -0.000006 -0.004432 -0.055860 -18.845600
0.000000 0.000000 0.000000 0.000000 0.000000 -0.000000 -2.027040 91.878400 -2.570020 87.387300 -2.252660 2.691360 15.735700 0.000005 -0.000001 81.210700 86.234800 -83.781000 8.984550 -0.406207 -0.000000 -0.340498 -0.968691 -5.140630 16.377300 -0.000001 -0.000001 2.846620 -2.789860 4.425970 6.456720 -0.000001 -0.000000 -3.433290 -0.700223 -0.104859 12.994200 -0.242716 4.980390 -91.774500 4.194520 -67.044700 5.348090 -0.000007 -0.000001 -61.209900 17.989400 -5.469670 24.328600 0.000019 0.000005 8.896510 19.859200 -24.739500 22.291600 -0.000001 0.000005 12.759800 5.156410 3.789570 12.994500 -0.242716 -4.980390 93.090700 -8.208590 -69.284400 -5.348130 -0.000001 -0.000004 -16.193300 -62.926200 -40.361200 -24.328900 0.000322 -0.000009 -7.482820 -3.214000 -66.880800 -22.291500 -0.000108 -0.000004 21.043900 5.547400 -8.584210 -2.192480 -6.469440 -0.000000 -173.380000 -13.360600 -7.232160 39.081100 -0.000007 -0.000012 -0.116015 0.229146 26.852900 40.985400 -0.000006 -0.000013 -0.408847 7.022190 -66.600300 11.754300 -0.000000 0.000003 -0.000039 -0.000458 -16.595400 -2.192510 6.469440 -0.000001 -179.425000 23.840000 174.514000 -39.081100 -0.002282 -0.040193 0.001326 0.004454 24.056500 -40.985400 0.000008 0.000006 7.709500 16.002800 -67.422200 -11.754300 -0.000006 -0.000006 -0.004272 -0.054240 -18.779600
0.000000 0.000000 0.000000 0.000000 0.000000 -0.000000 -1.730250 91.875300 -2.580250 87.457500 -2.799670 2.808160 15.735700 0.000005 -0.000001 81.278700 86.131300 -83.549300 8.984550 -0.406207 -0.000000 -0.134161 -1.016470 -4.539640 16.377300 -0.000001 -0.000001 2.617680 -2.350210 3.921320 6.456720 -0.000001 -0.000000 -3.314330 -0.753957 0.235796 12.994200 -0.242716 4.980390 -91.881900 4.429790 -66.954700 5.348090 -0.000007 -0.000001 -61.956300 19.581300 -5.754620 24.328600 0.000019 0.000005 8.495720 20.070500 -23.521900 22.291600 -0.000001 0.000005 12.663300 5.152300 3.888320 12.994500 -0.242716 -4.980390 92.452900 -6.823850 -70.173900 -5.348130 -0.000001 -0.000004 -16.192200 -58.087900 -36.416900 -24.328900 0.000322 -0.000009 -6.294020 -1.696810 -74.968400 -22.291500 -0.000108 -0.000004 20.899800 5.530740 -7.827960 -2.192480 -6.469440 -0.000000 -173.630000 -13.630000 -7.036710 39.081100 -0.000007 -0.000012 -0.114554 0.225994 26.880100 40.985400 -0.000006 -0.000013 -0.255642 6.707350 -66.703100 11.754300 -0.000000 0.000003 -0.000041 -0.000474 -16.596000 -2.192510 6.469440 -0.000001 -179.804000 23.737700 174.556000 -39.081100 -0.002282 -0.040193 -0.006335 0.021513 24.156900 -40.985400 0.000008 0.000006 7.444240 16.544000 -67.339500 -11.754300 -0.000006 -0.000006 -0.004181 -0.053312 -18.741800
